<?xml version="1.0" encoding="utf-8"?>
<!-- Generator: Adobe Illustrator 23.0.1, SVG Export Plug-In . SVG Version: 6.00 Build 0)  -->
<svg version="1.1" xmlns="http://www.w3.org/2000/svg" xmlns:xlink="http://www.w3.org/1999/xlink" x="0px" y="0px"
	 viewBox="0 0 2552.2 993.1" style="enable-background:new 0 0 2552.2 993.1;" xml:space="preserve">
<style type="text/css">
	.st0{fill-rule:evenodd;clip-rule:evenodd;fill:#808081;}
	.st1{fill:#808081;}
	.st2{fill:#FBC404;}
	.st3{fill-rule:evenodd;clip-rule:evenodd;fill:#FBC404;}
	.st4{display:none;}
	.st5{display:inline;}
	.st6{fill:none;stroke:#E71F6C;stroke-miterlimit:10;}
	.st7{display:inline;fill:none;stroke:#E71F6C;stroke-miterlimit:10;}
	.st8{fill:#E7226C;}
</style>
<g id="Ebene_1">
	<g>
		<path class="st0" d="M561.7,220.8L477.4,304l23.2,22.9l96.5-95.2C585.6,227.3,573.8,223.7,561.7,220.8z"/>
		<path class="st1" d="M780,496.6C780,653.1,653.1,780,496.6,780C340,780,213.1,653.1,213.1,496.6S340,213.1,496.6,213.1
			C653.1,213.1,780,340,780,496.6z M241.4,496.6c0,140.9,114.2,255.1,255.1,255.1c140.9,0,255.1-114.2,255.1-255.1
			S637.5,241.4,496.6,241.4C355.7,241.4,241.4,355.7,241.4,496.6z"/>
		<rect x="330.4" y="317.4" class="st2" width="32.6" height="358.4"/>
		<polygon class="st2" points="329.2,504.1 352.4,481.2 510.1,636.8 486.9,659.7 		"/>
		<path class="st0" d="M477.4,304.3H510v371.6l-7,0.1l-25.6-25.2V304.3z"/>
		<path class="st3" d="M242.2,516.4h120.9v-32.6H241.8C241.2,494.7,241.4,505.6,242.2,516.4z"/>
		<path class="st0" d="M752.9,516.4c0.9-10.8,1-21.7,0.5-32.6H493.2v32.6H752.9z"/>
		<path class="st3" d="M596.7,231.3L337.6,486.9l23.2,22.9l267.4-264.3c-4.7-2.5-9.7-4.9-15-7.3C607.5,235.6,602,233.3,596.7,231.3z
			"/>
		<g>
			<path class="st1" d="M1010.4,215.9l-52.5,73.3l57.9,78.2H993l-53.5-74.2v74.2h-17.8V215.9h17.8V289l51-73.1H1010.4z"/>
			<path class="st1" d="M1129.6,215.9l42,151.5h-19.2l-9-35.2H1093l-9,35.2h-18.2l41.8-151.5H1129.6z M1118.3,233.9l-20.9,80.7h41.6
				L1118.3,233.9z"/>
			<path class="st1" d="M1246.4,215.9v151.5h-17.8V215.9H1246.4z"/>
			<path class="st1" d="M1376.5,216.8l-0.4,17.3c-11.4-2.5-21.1-3.7-29.1-3.7c-8.1,0-13.9,1.8-17.5,5.3c-3.6,3.5-5.3,8.9-5.3,16.2v6
				c0,3.9,0.5,6.9,1.4,9.1c0.9,2.2,2.5,4.2,4.9,5.8c2.4,1.6,5.9,3.3,10.7,5l19.4,7.2c9.3,3.5,15.9,8.2,19.8,14.1
				c3.8,5.9,5.7,14.4,5.7,25.7v4.4c0,13.7-3.6,24-10.8,30.8c-7.2,6.8-18.9,10.2-35.2,10.2c-7.9,0-18.1-1.5-30.5-4.6l0.4-17.8
				c11.6,3.1,21.5,4.6,29.7,4.6c10.4,0,17.8-1.7,22.2-5.2c4.3-3.5,6.5-8.9,6.5-16.3v-7.6c0-5.4-1.1-9.5-3.2-12.4
				c-2.2-2.9-6-5.3-11.4-7.3l-21.5-7.9c-9.6-3.5-16.3-8.1-20.1-13.8c-3.8-5.6-5.6-14.1-5.6-25.6v-2.5c0-13.4,3.2-23.6,9.7-30.4
				c6.5-6.9,16.8-10.3,30.8-10.3C1354.6,213.1,1364.4,214.3,1376.5,216.8z"/>
			<path class="st1" d="M1517.4,215.9v17.8h-54.3v47.9h50.2v17.6h-50.2v50.4h54.3v17.8h-72.1V215.9H1517.4z"/>
			<path class="st1" d="M1652.1,223.7c7.8,7.1,11.7,17,11.7,29.8v5.8c0,8.9-2.2,16.8-6.7,23.7c-4.5,6.9-10.9,11.7-19.2,14.5
				l35.5,69.8h-19.9l-33.2-65.7c-1.1,0.2-3.3,0.2-6.7,0.2c-5.6,0-11.1-0.2-16.5-0.7v66.1h-17.8V214c15.6-0.6,27.7-0.9,36.4-0.9
				C1632.2,213.1,1644.3,216.6,1652.1,223.7z M1597.2,230.2v54.6c7.5,0.8,13.8,1.2,18.8,1.2c20.1,0,30.1-9,30.1-27.1v-4.6
				c0-8.3-2.4-14.5-7.3-18.5c-4.9-4-12.7-6-23.4-6C1610.7,229.8,1604.7,229.9,1597.2,230.2z"/>
			<path class="st1" d="M993.9,420.8v17.8h-54.3v47.9h41v17.6h-41v68.2h-17.8V420.8H993.9z"/>
			<path class="st1" d="M1126.2,428.7c7.8,7.1,11.7,17,11.7,29.8v5.8c0,8.9-2.2,16.8-6.7,23.7c-4.5,6.9-10.9,11.7-19.2,14.5
				l35.5,69.8h-19.9l-33.2-65.7c-1.1,0.2-3.3,0.2-6.7,0.2c-5.6,0-11.1-0.2-16.5-0.7v66.1h-17.8V419c15.6-0.6,27.7-0.9,36.4-0.9
				C1106.3,418,1118.4,421.6,1126.2,428.7z M1071.3,435.2v54.6c7.5,0.8,13.8,1.2,18.8,1.2c20.1,0,30.1-9,30.1-27.1v-4.6
				c0-8.3-2.4-14.5-7.3-18.5c-4.9-4-12.7-6-23.4-6C1084.8,434.7,1078.8,434.9,1071.3,435.2z"/>
			<path class="st1" d="M1262.7,420.8l42,151.5h-19.2l-9-35.2h-50.4l-9,35.2H1199l41.8-151.5H1262.7z M1251.4,438.9l-20.9,80.7h41.6
				L1251.4,438.9z"/>
			<path class="st1" d="M1424.5,572.3l-45.1-127.9v127.9h-17.6V420.8h28.4l44.3,127.9V420.8h17.6v151.5H1424.5z"/>
			<path class="st1" d="M1594.3,420.8v15.5l-61.9,118.2h61.9v17.8h-82.6v-15.5l61.9-118.2H1513v-17.8H1594.3z"/>
			<path class="st1" d="M993.9,625.8v17.8h-54.3v47.9h50.2V709h-50.2v50.4h54.3v17.8h-72.1V625.8H993.9z"/>
			<path class="st1" d="M1118.5,777.3l-45.1-127.9v127.9h-17.6V625.8h28.4l44.3,127.9V625.8h17.6v151.5H1118.5z"/>
			<path class="st1" d="M1271.9,624.5c6.7,1,12.8,2.1,18.4,3.4l-0.4,17.3c-15.7-3.4-27.7-5.1-35.7-5.1c-9.6,0-16.5,2.1-20.6,6.4
				c-4.1,4.2-6.2,11.3-6.2,21.2v67.1c0,9.9,2.1,17,6.2,21.4c4.1,4.4,11,6.6,20.6,6.6c6.3,0,14.4-1.1,24.5-3.2v-51.1h-26.1v-18.5
				h43.9v81.6c-16.7,5.7-30.8,8.6-42.2,8.6c-16,0-27.5-3.8-34.3-11.3c-6.8-7.6-10.2-19.3-10.2-35.4v-63.6c0-16.3,3.5-28.2,10.4-35.6
				c7-7.4,18.3-11.1,34.1-11.1C1259.3,623,1265.3,623.5,1271.9,624.5z"/>
			<path class="st1" d="M1377.3,625.8v151.5h-17.8V625.8H1377.3z"/>
			<path class="st1" d="M1504.6,777.3l-45.1-127.9v127.9h-17.6V625.8h28.4l44.3,127.9V625.8h17.6v151.5H1504.6z"/>
			<path class="st1" d="M1668.8,625.8v17.8h-54.3v47.9h50.2V709h-50.2v50.4h54.3v17.8h-72.1V625.8H1668.8z"/>
			<path class="st1" d="M1802.9,625.8v17.8h-54.3v47.9h50.2V709h-50.2v50.4h54.3v17.8h-72.1V625.8H1802.9z"/>
			<path class="st1" d="M1937.6,633.6c7.8,7.1,11.7,17,11.7,29.8v5.8c0,8.9-2.2,16.8-6.7,23.7c-4.5,6.9-10.9,11.7-19.2,14.5
				l35.5,69.8h-19.9l-33.2-65.7c-1.1,0.2-3.3,0.2-6.7,0.2c-5.6,0-11.1-0.2-16.5-0.7v66.1h-17.8V623.9c15.6-0.6,27.7-0.9,36.4-0.9
				C1917.7,623,1929.8,626.5,1937.6,633.6z M1882.7,640.1v54.6c7.5,0.8,13.8,1.2,18.8,1.2c20.1,0,30.1-9,30.1-27.1v-4.6
				c0-8.3-2.4-14.5-7.3-18.5c-4.9-4-12.7-6-23.4-6C1896.2,639.6,1890.2,639.8,1882.7,640.1z"/>
			<path class="st1" d="M2034,625.8v151.5h-17.8V625.8H2034z"/>
			<path class="st1" d="M2161.2,777.3l-45.1-127.9v127.9h-17.6V625.8h28.4l44.3,127.9V625.8h17.6v151.5H2161.2z"/>
			<path class="st1" d="M2314.6,624.5c6.7,1,12.8,2.1,18.4,3.4l-0.4,17.3c-15.7-3.4-27.7-5.1-35.7-5.1c-9.6,0-16.5,2.1-20.6,6.4
				c-4.1,4.2-6.2,11.3-6.2,21.2v67.1c0,9.9,2.1,17,6.2,21.4c4.1,4.4,11,6.6,20.6,6.6c6.3,0,14.4-1.1,24.5-3.2v-51.1h-26.1v-18.5
				h43.9v81.6c-16.7,5.7-30.8,8.6-42.2,8.6c-16,0-27.5-3.8-34.3-11.3c-6.8-7.6-10.2-19.3-10.2-35.4v-63.6c0-16.3,3.5-28.2,10.5-35.6
				c7-7.4,18.3-11.1,34.1-11.1C2302,623,2307.9,623.5,2314.6,624.5z"/>
		</g>
	</g>
</g>
<g id="Ebene_2" class="st4">
	<g class="st5">
		<rect x="0.5" y="0.5" class="st6" width="141.7" height="141.7"/>
		<rect x="0.5" y="142.2" class="st6" width="141.7" height="141.7"/>
		<rect x="0.5" y="284" class="st6" width="141.7" height="141.7"/>
		<rect x="0.5" y="425.7" class="st6" width="141.7" height="141.7"/>
		<rect x="0.5" y="567.4" class="st6" width="141.7" height="141.7"/>
		<rect x="0.5" y="709.2" class="st6" width="141.7" height="141.7"/>
		<rect x="0.5" y="850.9" class="st6" width="141.7" height="141.7"/>
		<rect x="142.2" y="0.5" class="st6" width="141.7" height="141.7"/>
		<rect x="142.2" y="142.2" class="st6" width="141.7" height="141.7"/>
		<rect x="142.2" y="284" class="st6" width="141.7" height="141.7"/>
		<rect x="142.2" y="425.7" class="st6" width="141.7" height="141.7"/>
		<rect x="142.2" y="567.4" class="st6" width="141.7" height="141.7"/>
		<rect x="142.2" y="709.2" class="st6" width="141.7" height="141.7"/>
		<rect x="142.2" y="850.9" class="st6" width="141.7" height="141.7"/>
		<rect x="284" y="0.5" class="st6" width="141.7" height="141.7"/>
		<rect x="284" y="142.2" class="st6" width="141.7" height="141.7"/>
		<rect x="284" y="284" class="st6" width="141.7" height="141.7"/>
		<rect x="284" y="425.7" class="st6" width="141.7" height="141.7"/>
		<rect x="284" y="567.4" class="st6" width="141.7" height="141.7"/>
		<rect x="284" y="709.2" class="st6" width="141.7" height="141.7"/>
		<rect x="284" y="850.9" class="st6" width="141.7" height="141.7"/>
		<rect x="425.7" y="0.5" class="st6" width="141.7" height="141.7"/>
		<rect x="425.7" y="142.2" class="st6" width="141.7" height="141.7"/>
		<rect x="425.7" y="284" class="st6" width="141.7" height="141.7"/>
		<rect x="425.7" y="425.7" class="st6" width="141.7" height="141.7"/>
		<rect x="425.7" y="567.4" class="st6" width="141.7" height="141.7"/>
		<rect x="425.7" y="709.2" class="st6" width="141.7" height="141.7"/>
		<rect x="425.7" y="850.9" class="st6" width="141.7" height="141.7"/>
		<rect x="567.4" y="0.5" class="st6" width="141.7" height="141.7"/>
		<rect x="567.4" y="142.2" class="st6" width="141.7" height="141.7"/>
		<rect x="567.4" y="284" class="st6" width="141.7" height="141.7"/>
		<rect x="567.4" y="425.7" class="st6" width="141.7" height="141.7"/>
		<rect x="567.4" y="567.4" class="st6" width="141.7" height="141.7"/>
		<rect x="567.4" y="709.2" class="st6" width="141.7" height="141.7"/>
		<rect x="567.4" y="850.9" class="st6" width="141.7" height="141.7"/>
		<rect x="709.2" y="0.5" class="st6" width="141.7" height="141.7"/>
		<rect x="709.2" y="142.2" class="st6" width="141.7" height="141.7"/>
		<rect x="709.2" y="284" class="st6" width="141.7" height="141.7"/>
		<rect x="709.2" y="425.7" class="st6" width="141.7" height="141.7"/>
		<rect x="709.2" y="567.4" class="st6" width="141.7" height="141.7"/>
		<rect x="709.2" y="709.2" class="st6" width="141.7" height="141.7"/>
		<rect x="709.2" y="850.9" class="st6" width="141.7" height="141.7"/>
		<rect x="850.9" y="0.5" class="st6" width="141.7" height="141.7"/>
		<rect x="850.9" y="142.2" class="st6" width="141.7" height="141.7"/>
		<rect x="850.9" y="284" class="st6" width="141.7" height="141.7"/>
		<rect x="850.9" y="425.7" class="st6" width="141.7" height="141.7"/>
		<rect x="850.9" y="567.4" class="st6" width="141.7" height="141.7"/>
		<rect x="850.9" y="709.2" class="st6" width="141.7" height="141.7"/>
		<rect x="850.9" y="850.9" class="st6" width="141.7" height="141.7"/>
		<rect x="992.6" y="0.5" class="st6" width="141.7" height="141.7"/>
		<rect x="992.6" y="142.2" class="st6" width="141.7" height="141.7"/>
		<rect x="992.6" y="284" class="st6" width="141.7" height="141.7"/>
		<rect x="992.6" y="425.7" class="st6" width="141.7" height="141.7"/>
		<rect x="992.6" y="567.4" class="st6" width="141.7" height="141.7"/>
		<rect x="992.6" y="709.2" class="st6" width="141.7" height="141.7"/>
		<rect x="992.6" y="850.9" class="st6" width="141.7" height="141.7"/>
		<rect x="1134.4" y="0.5" class="st6" width="141.7" height="141.7"/>
		<rect x="1134.4" y="142.2" class="st6" width="141.7" height="141.7"/>
		<rect x="1134.4" y="284" class="st6" width="141.7" height="141.7"/>
		<rect x="1134.4" y="425.7" class="st6" width="141.7" height="141.7"/>
		<rect x="1134.4" y="567.4" class="st6" width="141.7" height="141.7"/>
		<rect x="1134.4" y="709.2" class="st6" width="141.7" height="141.7"/>
		<rect x="1134.4" y="850.9" class="st6" width="141.7" height="141.7"/>
		<rect x="1276.1" y="0.5" class="st6" width="141.7" height="141.7"/>
		<rect x="1276.1" y="142.2" class="st6" width="141.7" height="141.7"/>
		<rect x="1276.1" y="284" class="st6" width="141.7" height="141.7"/>
		<rect x="1276.1" y="425.7" class="st6" width="141.7" height="141.7"/>
		<rect x="1276.1" y="567.4" class="st6" width="141.7" height="141.7"/>
		<rect x="1276.1" y="709.2" class="st6" width="141.7" height="141.7"/>
		<rect x="1276.1" y="850.9" class="st6" width="141.7" height="141.7"/>
		<rect x="1417.8" y="0.5" class="st6" width="141.7" height="141.7"/>
		<rect x="1417.8" y="142.2" class="st6" width="141.7" height="141.7"/>
		<rect x="1417.8" y="284" class="st6" width="141.7" height="141.7"/>
		<rect x="1417.8" y="425.7" class="st6" width="141.7" height="141.7"/>
		<rect x="1417.8" y="567.4" class="st6" width="141.7" height="141.7"/>
		<rect x="1417.8" y="709.2" class="st6" width="141.7" height="141.7"/>
		<rect x="1417.8" y="850.9" class="st6" width="141.7" height="141.7"/>
		<rect x="1559.6" y="0.5" class="st6" width="141.7" height="141.7"/>
		<rect x="1559.6" y="142.2" class="st6" width="141.7" height="141.7"/>
		<rect x="1559.6" y="284" class="st6" width="141.7" height="141.7"/>
		<rect x="1559.6" y="425.7" class="st6" width="141.7" height="141.7"/>
		<rect x="1559.6" y="567.4" class="st6" width="141.7" height="141.7"/>
		<rect x="1559.6" y="709.2" class="st6" width="141.7" height="141.7"/>
		<rect x="1559.6" y="850.9" class="st6" width="141.7" height="141.7"/>
		<rect x="1701.3" y="0.5" class="st6" width="141.7" height="141.7"/>
		<rect x="1701.3" y="142.2" class="st6" width="141.7" height="141.7"/>
		<rect x="1701.3" y="284" class="st6" width="141.7" height="141.7"/>
		<rect x="1701.3" y="425.7" class="st6" width="141.7" height="141.7"/>
		<rect x="1701.3" y="567.4" class="st6" width="141.7" height="141.7"/>
		<rect x="1701.3" y="709.2" class="st6" width="141.7" height="141.7"/>
		<rect x="1701.3" y="850.9" class="st6" width="141.7" height="141.7"/>
		<rect x="1843" y="0.5" class="st6" width="141.7" height="141.7"/>
		<rect x="1843" y="142.2" class="st6" width="141.7" height="141.7"/>
		<rect x="1843" y="284" class="st6" width="141.7" height="141.7"/>
		<rect x="1843" y="425.7" class="st6" width="141.7" height="141.7"/>
		<rect x="1843" y="567.4" class="st6" width="141.7" height="141.7"/>
		<rect x="1843" y="709.2" class="st6" width="141.7" height="141.7"/>
		<rect x="1843" y="850.9" class="st6" width="141.7" height="141.7"/>
		<rect x="1984.8" y="0.5" class="st6" width="141.7" height="141.7"/>
		<rect x="1984.8" y="142.2" class="st6" width="141.7" height="141.7"/>
		<rect x="1984.8" y="284" class="st6" width="141.7" height="141.7"/>
		<rect x="1984.8" y="425.7" class="st6" width="141.7" height="141.7"/>
		<rect x="1984.8" y="567.4" class="st6" width="141.7" height="141.7"/>
		<rect x="1984.8" y="709.2" class="st6" width="141.7" height="141.7"/>
		<rect x="1984.8" y="850.9" class="st6" width="141.7" height="141.7"/>
		<rect x="2126.5" y="0.5" class="st6" width="141.7" height="141.7"/>
		<rect x="2126.5" y="142.2" class="st6" width="141.7" height="141.7"/>
		<rect x="2126.5" y="284" class="st6" width="141.7" height="141.7"/>
		<rect x="2126.5" y="425.7" class="st6" width="141.7" height="141.7"/>
		<rect x="2126.5" y="567.4" class="st6" width="141.7" height="141.7"/>
		<rect x="2126.5" y="709.2" class="st6" width="141.7" height="141.7"/>
		<rect x="2126.5" y="850.9" class="st6" width="141.7" height="141.7"/>
		<rect x="2268.2" y="0.5" class="st6" width="141.7" height="141.7"/>
		<rect x="2268.2" y="142.2" class="st6" width="141.7" height="141.7"/>
		<rect x="2268.2" y="284" class="st6" width="141.7" height="141.7"/>
		<rect x="2268.2" y="425.7" class="st6" width="141.7" height="141.7"/>
		<rect x="2268.2" y="567.4" class="st6" width="141.7" height="141.7"/>
		<rect x="2268.2" y="709.2" class="st6" width="141.7" height="141.7"/>
		<rect x="2268.2" y="850.9" class="st6" width="141.7" height="141.7"/>
		<rect x="2409.9" y="0.5" class="st6" width="141.7" height="141.7"/>
		<rect x="2409.9" y="142.2" class="st6" width="141.7" height="141.7"/>
		<rect x="2409.9" y="284" class="st6" width="141.7" height="141.7"/>
		<rect x="2409.9" y="425.7" class="st6" width="141.7" height="141.7"/>
		<rect x="2409.9" y="567.4" class="st6" width="141.7" height="141.7"/>
		<rect x="2409.9" y="709.2" class="st6" width="141.7" height="141.7"/>
		<rect x="2409.9" y="850.9" class="st6" width="141.7" height="141.7"/>
	</g>
</g>
<g id="Ebene_3" class="st4">
	<rect x="213.1" y="213.1" class="st7" width="141.7" height="141.7"/>
	<rect x="213.1" y="354.8" class="st7" width="141.7" height="141.7"/>
	<rect x="213.1" y="496.6" class="st7" width="141.7" height="141.7"/>
	<rect x="213.1" y="638.3" class="st7" width="141.7" height="141.7"/>
	<rect x="354.8" y="213.1" class="st7" width="141.7" height="141.7"/>
	<rect x="354.8" y="354.8" class="st7" width="141.7" height="141.7"/>
	<rect x="354.8" y="496.6" class="st7" width="141.7" height="141.7"/>
	<rect x="354.8" y="638.3" class="st7" width="141.7" height="141.7"/>
	<rect x="496.6" y="213.1" class="st7" width="141.7" height="141.7"/>
	<rect x="496.6" y="354.8" class="st7" width="141.7" height="141.7"/>
	<rect x="496.6" y="496.6" class="st7" width="141.7" height="141.7"/>
	<rect x="496.6" y="638.3" class="st7" width="141.7" height="141.7"/>
	<rect x="638.3" y="213.1" class="st7" width="141.7" height="141.7"/>
	<rect x="638.3" y="354.8" class="st7" width="141.7" height="141.7"/>
	<rect x="638.3" y="496.6" class="st7" width="141.7" height="141.7"/>
	<rect x="638.3" y="638.3" class="st7" width="141.7" height="141.7"/>
	<rect x="780" y="213.1" class="st7" width="141.7" height="141.7"/>
	<rect x="780" y="354.8" class="st7" width="141.7" height="141.7"/>
	<rect x="780" y="496.6" class="st7" width="141.7" height="141.7"/>
	<rect x="780" y="638.3" class="st7" width="141.7" height="141.7"/>
	<rect x="921.8" y="213.1" class="st7" width="141.7" height="141.7"/>
	<rect x="921.8" y="354.8" class="st7" width="141.7" height="141.7"/>
	<rect x="921.8" y="496.6" class="st7" width="141.7" height="141.7"/>
	<rect x="921.8" y="638.3" class="st7" width="141.7" height="141.7"/>
	<rect x="1063.5" y="213.1" class="st7" width="141.7" height="141.7"/>
	<rect x="1063.5" y="354.8" class="st7" width="141.7" height="141.7"/>
	<rect x="1063.5" y="496.6" class="st7" width="141.7" height="141.7"/>
	<rect x="1063.5" y="638.3" class="st7" width="141.7" height="141.7"/>
	<rect x="1205.2" y="213.1" class="st7" width="141.7" height="141.7"/>
	<rect x="1205.2" y="354.8" class="st7" width="141.7" height="141.7"/>
	<rect x="1205.2" y="496.6" class="st7" width="141.7" height="141.7"/>
	<rect x="1205.2" y="638.3" class="st7" width="141.7" height="141.7"/>
	<rect x="1347" y="213.1" class="st7" width="141.7" height="141.7"/>
	<rect x="1347" y="354.8" class="st7" width="141.7" height="141.7"/>
	<rect x="1347" y="496.6" class="st7" width="141.7" height="141.7"/>
	<rect x="1347" y="638.3" class="st7" width="141.7" height="141.7"/>
	<rect x="1488.7" y="213.1" class="st7" width="141.7" height="141.7"/>
	<rect x="1488.7" y="354.8" class="st7" width="141.7" height="141.7"/>
	<rect x="1488.7" y="496.6" class="st7" width="141.7" height="141.7"/>
	<rect x="1488.7" y="638.3" class="st7" width="141.7" height="141.7"/>
	<rect x="1630.4" y="213.1" class="st7" width="141.7" height="141.7"/>
	<rect x="1630.4" y="354.8" class="st7" width="141.7" height="141.7"/>
	<rect x="1630.4" y="496.6" class="st7" width="141.7" height="141.7"/>
	<rect x="1630.4" y="638.3" class="st7" width="141.7" height="141.7"/>
	<rect x="1772.2" y="213.1" class="st7" width="141.7" height="141.7"/>
	<rect x="1772.2" y="354.8" class="st7" width="141.7" height="141.7"/>
	<rect x="1772.2" y="496.6" class="st7" width="141.7" height="141.7"/>
	<rect x="1772.2" y="638.3" class="st7" width="141.7" height="141.7"/>
	<rect x="1913.9" y="213.1" class="st7" width="141.7" height="141.7"/>
	<rect x="1913.9" y="354.8" class="st7" width="141.7" height="141.7"/>
	<rect x="1913.9" y="496.6" class="st7" width="141.7" height="141.7"/>
	<rect x="1913.9" y="638.3" class="st7" width="141.7" height="141.7"/>
	<rect x="2055.6" y="213.1" class="st7" width="141.7" height="141.7"/>
	<rect x="2055.6" y="354.8" class="st7" width="141.7" height="141.7"/>
	<rect x="2055.6" y="496.6" class="st7" width="141.7" height="141.7"/>
	<rect x="2055.6" y="638.3" class="st7" width="141.7" height="141.7"/>
	<rect x="2197.4" y="213.1" class="st7" width="141.7" height="141.7"/>
	<rect x="2197.4" y="354.8" class="st7" width="141.7" height="141.7"/>
	<rect x="2197.4" y="496.6" class="st7" width="141.7" height="141.7"/>
	<rect x="2197.4" y="638.3" class="st7" width="141.7" height="141.7"/>
</g>
<g id="Maße" class="st4">
	<g class="st5">
		<g>
			<path class="st8" d="M15.7,985.4c-1.8,0-3.5-0.3-5.1-0.9c-1.6-0.6-2.9-1.4-3.9-2.4l1.3-2.1c0.8,0.8,1.9,1.5,3.3,2.1
				c1.4,0.6,2.9,0.8,4.5,0.8c2.1,0,3.8-0.5,4.9-1.4c1.1-0.9,1.7-2.2,1.7-3.7c0-1.1-0.3-2-0.8-2.8s-1.4-1.4-2.6-1.8s-2.9-0.6-5-0.6
				H8.4l1.3-12.6h13.8v2.3H10.7l1.3-1.3L11,971.6l-1.3-1.3h4.7c2.5,0,4.6,0.3,6.1,0.9c1.5,0.6,2.6,1.5,3.3,2.6c0.7,1.1,1,2.4,1,3.9
				c0,1.4-0.3,2.7-1,3.9s-1.7,2.1-3,2.8C19.4,985,17.7,985.4,15.7,985.4z"/>
			<path class="st8" d="M38.1,985.4c-1.9,0-3.7-0.5-5.2-1.5c-1.5-1-2.7-2.5-3.6-4.4c-0.9-1.9-1.3-4.2-1.3-6.9c0-2.7,0.4-5,1.3-6.9
				c0.9-1.9,2.1-3.4,3.6-4.4c1.5-1,3.2-1.5,5.2-1.5s3.7,0.5,5.2,1.5c1.5,1,2.7,2.5,3.6,4.4c0.9,1.9,1.3,4.2,1.3,6.9
				c0,2.7-0.4,5-1.3,6.9c-0.9,1.9-2.1,3.4-3.6,4.4C41.8,984.9,40.1,985.4,38.1,985.4z M38.1,983c1.5,0,2.8-0.4,3.9-1.2
				c1.1-0.8,2-2,2.6-3.5c0.6-1.5,0.9-3.5,0.9-5.7s-0.3-4.2-0.9-5.7c-0.6-1.5-1.5-2.7-2.6-3.5c-1.1-0.8-2.4-1.2-3.9-1.2
				c-1.4,0-2.7,0.4-3.9,1.2c-1.1,0.8-2,2-2.6,3.5c-0.6,1.5-0.9,3.5-0.9,5.7s0.3,4.2,0.9,5.7c0.6,1.5,1.5,2.7,2.6,3.5
				C35.4,982.6,36.7,983,38.1,983z"/>
			<path class="st8" d="M77.2,966.1c1.5,0,2.9,0.3,4,0.9c1.1,0.6,2,1.5,2.7,2.7c0.6,1.2,1,2.7,1,4.5v11h-2.6v-10.7
				c0-2-0.5-3.5-1.4-4.5c-0.9-1-2.3-1.5-4-1.5c-1.3,0-2.4,0.3-3.4,0.8c-0.9,0.5-1.7,1.3-2.2,2.3c-0.5,1-0.8,2.3-0.8,3.7v9.9H68
				v-10.7c0-2-0.5-3.5-1.4-4.5c-1-1-2.3-1.5-4-1.5c-1.3,0-2.4,0.3-3.3,0.8c-1,0.5-1.7,1.3-2.2,2.3c-0.5,1-0.8,2.3-0.8,3.7v9.9h-2.6
				v-18.9h2.4v5.1l-0.4-0.9c0.6-1.4,1.5-2.4,2.8-3.2c1.3-0.8,2.8-1.2,4.6-1.2c1.8,0,3.4,0.5,4.7,1.4c1.3,0.9,2.1,2.3,2.5,4.2l-1-0.4
				c0.6-1.5,1.5-2.8,2.9-3.7C73.6,966.5,75.3,966.1,77.2,966.1z"/>
			<path class="st8" d="M115.4,966.1c1.5,0,2.9,0.3,4,0.9c1.1,0.6,2,1.5,2.7,2.7c0.6,1.2,1,2.7,1,4.5v11h-2.6v-10.7
				c0-2-0.5-3.5-1.4-4.5c-0.9-1-2.3-1.5-4-1.5c-1.3,0-2.4,0.3-3.4,0.8c-0.9,0.5-1.7,1.3-2.2,2.3c-0.5,1-0.8,2.3-0.8,3.7v9.9h-2.6
				v-10.7c0-2-0.5-3.5-1.4-4.5c-1-1-2.3-1.5-4-1.5c-1.3,0-2.4,0.3-3.3,0.8c-1,0.5-1.7,1.3-2.2,2.3c-0.5,1-0.8,2.3-0.8,3.7v9.9h-2.6
				v-18.9h2.4v5.1l-0.4-0.9c0.6-1.4,1.5-2.4,2.8-3.2c1.3-0.8,2.8-1.2,4.6-1.2c1.8,0,3.4,0.5,4.7,1.4c1.3,0.9,2.1,2.3,2.5,4.2l-1-0.4
				c0.6-1.5,1.5-2.8,2.9-3.7C111.8,966.5,113.5,966.1,115.4,966.1z"/>
		</g>
	</g>
	<g class="st5">
		<g>
			<path class="st8" d="M15.7,885.6c-1.8,0-3.5-0.3-5.1-0.9c-1.6-0.6-2.9-1.4-3.9-2.4l1.3-2.1c0.8,0.8,1.9,1.5,3.3,2.1
				c1.4,0.6,2.9,0.8,4.5,0.8c2.1,0,3.8-0.5,4.9-1.4c1.1-0.9,1.7-2.2,1.7-3.7c0-1.1-0.3-2-0.8-2.8s-1.4-1.4-2.6-1.8s-2.9-0.6-5-0.6
				H8.4l1.3-12.6h13.8v2.3H10.7l1.3-1.3L11,871.8l-1.3-1.3h4.7c2.5,0,4.6,0.3,6.1,0.9c1.5,0.6,2.6,1.5,3.3,2.6c0.7,1.1,1,2.4,1,3.9
				c0,1.4-0.3,2.7-1,3.9s-1.7,2.1-3,2.8C19.4,885.2,17.7,885.6,15.7,885.6z"/>
			<path class="st8" d="M38.1,885.6c-1.9,0-3.7-0.5-5.2-1.5c-1.5-1-2.7-2.5-3.6-4.4c-0.9-1.9-1.3-4.2-1.3-6.9c0-2.7,0.4-5,1.3-6.9
				c0.9-1.9,2.1-3.4,3.6-4.4c1.5-1,3.2-1.5,5.2-1.5s3.7,0.5,5.2,1.5c1.5,1,2.7,2.5,3.6,4.4c0.9,1.9,1.3,4.2,1.3,6.9
				c0,2.7-0.4,5-1.3,6.9c-0.9,1.9-2.1,3.4-3.6,4.4C41.8,885.1,40.1,885.6,38.1,885.6z M38.1,883.2c1.5,0,2.8-0.4,3.9-1.2
				c1.1-0.8,2-2,2.6-3.5c0.6-1.5,0.9-3.5,0.9-5.7s-0.3-4.2-0.9-5.7c-0.6-1.5-1.5-2.7-2.6-3.5c-1.1-0.8-2.4-1.2-3.9-1.2
				c-1.4,0-2.7,0.4-3.9,1.2c-1.1,0.8-2,2-2.6,3.5c-0.6,1.5-0.9,3.5-0.9,5.7s0.3,4.2,0.9,5.7c0.6,1.5,1.5,2.7,2.6,3.5
				C35.4,882.8,36.7,883.2,38.1,883.2z"/>
			<path class="st8" d="M33,909.5c1.5,0,2.9,0.3,4,0.9c1.1,0.6,2,1.5,2.7,2.7c0.6,1.2,1,2.7,1,4.5v11h-2.6v-10.7
				c0-2-0.5-3.5-1.4-4.5c-0.9-1-2.3-1.5-4-1.5c-1.3,0-2.4,0.3-3.4,0.8c-0.9,0.5-1.7,1.3-2.2,2.3c-0.5,1-0.8,2.3-0.8,3.7v9.9h-2.6
				v-10.7c0-2-0.5-3.5-1.4-4.5c-1-1-2.3-1.5-4-1.5c-1.3,0-2.4,0.3-3.3,0.8c-1,0.5-1.7,1.3-2.2,2.3c-0.5,1-0.8,2.3-0.8,3.7v9.9H9.4
				v-18.9h2.4v5.1l-0.4-0.9c0.6-1.4,1.5-2.4,2.8-3.2c1.3-0.8,2.8-1.2,4.6-1.2c1.8,0,3.4,0.5,4.7,1.4c1.3,0.9,2.1,2.3,2.5,4.2l-1-0.4
				c0.6-1.5,1.5-2.8,2.9-3.7C29.4,910,31.1,909.5,33,909.5z"/>
			<path class="st8" d="M71.2,909.5c1.5,0,2.9,0.3,4,0.9c1.1,0.6,2,1.5,2.7,2.7c0.6,1.2,1,2.7,1,4.5v11h-2.6v-10.7
				c0-2-0.5-3.5-1.4-4.5c-0.9-1-2.3-1.5-4-1.5c-1.3,0-2.4,0.3-3.4,0.8c-0.9,0.5-1.7,1.3-2.2,2.3c-0.5,1-0.8,2.3-0.8,3.7v9.9H62
				v-10.7c0-2-0.5-3.5-1.4-4.5c-1-1-2.3-1.5-4-1.5c-1.3,0-2.4,0.3-3.3,0.8c-1,0.5-1.7,1.3-2.2,2.3c-0.5,1-0.8,2.3-0.8,3.7v9.9h-2.6
				v-18.9h2.4v5.1l-0.4-0.9c0.6-1.4,1.5-2.4,2.8-3.2c1.3-0.8,2.8-1.2,4.6-1.2c1.8,0,3.4,0.5,4.7,1.4c1.3,0.9,2.1,2.3,2.5,4.2l-1-0.4
				c0.6-1.5,1.5-2.8,2.9-3.7C67.6,910,69.3,909.5,71.2,909.5z"/>
		</g>
	</g>
</g>
</svg>
