<svg width="1576" height="124" viewBox="0 0 1576 124" fill="none" xmlns="http://www.w3.org/2000/svg">
<rect x="1" y="23" width="1574" height="79" fill="#393939"/>
<path d="M0.987305 22.2012H43L83.0117 61.7992L61.7985 83.0124L0.987305 22.2012Z" fill="#393939"/>
<path d="M61.8115 41L83.0247 62.2132L42.5 101.811L1.00034 101.811L61.8115 41Z" fill="#393939"/>
<path d="M44 22.2129H86.0127L126.024 61.8109L104.811 83.0241L44 22.2129Z" fill="#FBC402"/>
<path d="M104.824 41.0117L126.037 62.2249L85.5127 101.823L44.013 101.823L104.824 41.0117Z" fill="#FBC402"/>
<path d="M85 22.2129H127.013L167.024 61.8109L145.811 83.0241L85 22.2129Z" fill="#393939"/>
<path d="M145.824 41.0117L167.037 62.2249L126.513 101.823L85.013 101.823L145.824 41.0117Z" fill="#393939"/>
<path d="M128.013 22.2246H170.025L210.037 61.8226L188.824 83.0358L128.013 22.2246Z" fill="#FBC402"/>
<path d="M188.837 41.0234L210.05 62.2366L169.525 101.835L128.026 101.835L188.837 41.0234Z" fill="#FBC402"/>
<path d="M169 22.2129H211.013L251.024 61.8109L229.811 83.0241L169 22.2129Z" fill="#393939"/>
<path d="M229.824 41.0117L251.037 62.2249L210.513 101.823L169.013 101.823L229.824 41.0117Z" fill="#393939"/>
<path d="M212.013 22.2246H254.025L294.037 61.8226L272.824 83.0358L212.013 22.2246Z" fill="#FBC402"/>
<path d="M272.837 41.0234L294.05 62.2366L253.525 101.835L212.026 101.835L272.837 41.0234Z" fill="#FBC402"/>
<path d="M253.013 22.2246H295.025L335.037 61.8226L313.824 83.0358L253.013 22.2246Z" fill="#393939"/>
<path d="M313.837 41.0234L335.05 62.2366L294.525 101.835L253.026 101.835L313.837 41.0234Z" fill="#393939"/>
<path d="M296.025 22.2363H338.038L378.05 61.8343L356.837 83.0475L296.025 22.2363Z" fill="#FBC402"/>
<path d="M356.85 41.0352L378.063 62.2484L337.538 101.846L296.038 101.846L356.85 41.0352Z" fill="#FBC402"/>
<path d="M337 22.2129H379.013L419.024 61.8109L397.811 83.0241L337 22.2129Z" fill="#393939"/>
<path d="M397.824 41.0117L419.037 62.2249L378.513 101.823L337.013 101.823L397.824 41.0117Z" fill="#393939"/>
<path d="M380.013 22.2246H422.025L462.037 61.8226L440.824 83.0358L380.013 22.2246Z" fill="#FBC402"/>
<path d="M440.837 41.0234L462.05 62.2366L421.525 101.835L380.026 101.835L440.837 41.0234Z" fill="#FBC402"/>
<path d="M421.013 22.2246H463.025L503.037 61.8226L481.824 83.0358L421.013 22.2246Z" fill="#393939"/>
<path d="M481.837 41.0234L503.05 62.2366L462.525 101.835L421.026 101.835L481.837 41.0234Z" fill="#393939"/>
<path d="M464.025 22.2363H506.038L546.05 61.8343L524.837 83.0475L464.025 22.2363Z" fill="#FBC402"/>
<path d="M524.85 41.0352L546.063 62.2484L505.538 101.846L464.038 101.846L524.85 41.0352Z" fill="#FBC402"/>
<path d="M505.013 22.2246H547.025L587.037 61.8226L565.824 83.0358L505.013 22.2246Z" fill="#393939"/>
<path d="M565.837 41.0234L587.05 62.2366L546.525 101.835L505.026 101.835L565.837 41.0234Z" fill="#393939"/>
<path d="M548.025 22.2363H590.038L630.05 61.8343L608.837 83.0475L548.025 22.2363Z" fill="#FBC402"/>
<path d="M608.85 41.0352L630.063 62.2484L589.538 101.846L548.038 101.846L608.85 41.0352Z" fill="#FBC402"/>
<path d="M589.025 22.2363H631.038L671.05 61.8343L649.837 83.0475L589.025 22.2363Z" fill="#393939"/>
<path d="M649.85 41.0352L671.063 62.2484L630.538 101.846L589.038 101.846L649.85 41.0352Z" fill="#393939"/>
<path d="M632.038 22.248H674.051L714.062 61.846L692.849 83.0592L632.038 22.248Z" fill="#FBC402"/>
<path d="M692.862 41.0469L714.076 62.2601L673.551 101.858L632.051 101.858L692.862 41.0469Z" fill="#FBC402"/>
<path d="M0.987305 22.2012H43L83.0117 61.7992L61.7985 83.0124L0.987305 22.2012Z" fill="#393939"/>
<path d="M61.8115 41L83.0247 62.2132L42.5 101.811L1.00034 101.811L61.8115 41Z" fill="#393939"/>
<path d="M44 22.2129H86.0127L126.024 61.8109L104.811 83.0241L44 22.2129Z" fill="#FBC402"/>
<path d="M104.824 41.0117L126.037 62.2249L85.5127 101.823L44.013 101.823L104.824 41.0117Z" fill="#FBC402"/>
<path d="M85 22.2129H127.013L167.024 61.8109L145.811 83.0241L85 22.2129Z" fill="#393939"/>
<path d="M145.824 41.0117L167.037 62.2249L126.513 101.823L85.013 101.823L145.824 41.0117Z" fill="#393939"/>
<path d="M128.013 22.2246H170.025L210.037 61.8226L188.824 83.0358L128.013 22.2246Z" fill="#FBC402"/>
<path d="M188.837 41.0234L210.05 62.2366L169.525 101.835L128.026 101.835L188.837 41.0234Z" fill="#FBC402"/>
<path d="M169 22.2129H211.013L251.024 61.8109L229.811 83.0241L169 22.2129Z" fill="#393939"/>
<path d="M229.824 41.0117L251.037 62.2249L210.513 101.823L169.013 101.823L229.824 41.0117Z" fill="#393939"/>
<path d="M212.013 22.2246H254.025L294.037 61.8226L272.824 83.0358L212.013 22.2246Z" fill="#FBC402"/>
<path d="M272.837 41.0234L294.05 62.2366L253.525 101.835L212.026 101.835L272.837 41.0234Z" fill="#FBC402"/>
<path d="M253.013 22.2246H295.025L335.037 61.8226L313.824 83.0358L253.013 22.2246Z" fill="#393939"/>
<path d="M313.837 41.0234L335.05 62.2366L294.525 101.835L253.026 101.835L313.837 41.0234Z" fill="#393939"/>
<path d="M296.025 22.2363H338.038L378.05 61.8343L356.837 83.0475L296.025 22.2363Z" fill="#FBC402"/>
<path d="M356.85 41.0352L378.063 62.2484L337.538 101.846L296.038 101.846L356.85 41.0352Z" fill="#FBC402"/>
<path d="M337 22.2129H379.013L419.024 61.8109L397.811 83.0241L337 22.2129Z" fill="#393939"/>
<path d="M397.824 41.0117L419.037 62.2249L378.513 101.823L337.013 101.823L397.824 41.0117Z" fill="#393939"/>
<path d="M380.013 22.2246H422.025L462.037 61.8226L440.824 83.0358L380.013 22.2246Z" fill="#FBC402"/>
<path d="M440.837 41.0234L462.05 62.2366L421.525 101.835L380.026 101.835L440.837 41.0234Z" fill="#FBC402"/>
<path d="M421.013 22.2246H463.025L503.037 61.8226L481.824 83.0358L421.013 22.2246Z" fill="#393939"/>
<path d="M481.837 41.0234L503.05 62.2366L462.525 101.835L421.026 101.835L481.837 41.0234Z" fill="#393939"/>
<path d="M464.025 22.2363H506.038L546.05 61.8343L524.837 83.0475L464.025 22.2363Z" fill="#FBC402"/>
<path d="M524.85 41.0352L546.063 62.2484L505.538 101.846L464.038 101.846L524.85 41.0352Z" fill="#FBC402"/>
<path d="M505.013 22.2246H547.025L587.037 61.8226L565.824 83.0358L505.013 22.2246Z" fill="#393939"/>
<path d="M565.837 41.0234L587.05 62.2366L546.525 101.835L505.026 101.835L565.837 41.0234Z" fill="#393939"/>
<path d="M548.025 22.2363H590.038L630.05 61.8343L608.837 83.0475L548.025 22.2363Z" fill="#FBC402"/>
<path d="M608.85 41.0352L630.063 62.2484L589.538 101.846L548.038 101.846L608.85 41.0352Z" fill="#FBC402"/>
<path d="M589.025 22.2363H631.038L671.05 61.8343L649.837 83.0475L589.025 22.2363Z" fill="#393939"/>
<path d="M649.85 41.0352L671.063 62.2484L630.538 101.846L589.038 101.846L649.85 41.0352Z" fill="#393939"/>
<path d="M632.038 22.248H674.051L714.062 61.846L692.849 83.0592L632.038 22.248Z" fill="#FBC402"/>
<path d="M692.862 41.0469L714.076 62.2601L673.551 101.858L632.051 101.858L692.862 41.0469Z" fill="#FBC402"/>
<path d="M0.987305 22.2012H43L83.0117 61.7992L61.7985 83.0124L0.987305 22.2012Z" fill="#393939"/>
<path d="M61.8115 41L83.0247 62.2132L42.5 101.811L1.00034 101.811L61.8115 41Z" fill="#393939"/>
<path d="M44 22.2129H86.0127L126.024 61.8109L104.811 83.0241L44 22.2129Z" fill="#FBC402"/>
<path d="M104.824 41.0117L126.037 62.2249L85.5127 101.823L44.013 101.823L104.824 41.0117Z" fill="#FBC402"/>
<path d="M85 22.2129H127.013L167.024 61.8109L145.811 83.0241L85 22.2129Z" fill="#393939"/>
<path d="M145.824 41.0117L167.037 62.2249L126.513 101.823L85.013 101.823L145.824 41.0117Z" fill="#393939"/>
<path d="M128.013 22.2246H170.025L210.037 61.8226L188.824 83.0358L128.013 22.2246Z" fill="#FBC402"/>
<path d="M188.837 41.0234L210.05 62.2366L169.525 101.835L128.026 101.835L188.837 41.0234Z" fill="#FBC402"/>
<path d="M169 22.2129H211.013L251.024 61.8109L229.811 83.0241L169 22.2129Z" fill="#393939"/>
<path d="M229.824 41.0117L251.037 62.2249L210.513 101.823L169.013 101.823L229.824 41.0117Z" fill="#393939"/>
<path d="M212.013 22.2246H254.025L294.037 61.8226L272.824 83.0358L212.013 22.2246Z" fill="#FBC402"/>
<path d="M272.837 41.0234L294.05 62.2366L253.525 101.835L212.026 101.835L272.837 41.0234Z" fill="#FBC402"/>
<path d="M253.013 22.2246H295.025L335.037 61.8226L313.824 83.0358L253.013 22.2246Z" fill="#393939"/>
<path d="M313.837 41.0234L335.05 62.2366L294.525 101.835L253.026 101.835L313.837 41.0234Z" fill="#393939"/>
<path d="M296.025 22.2363H338.038L378.05 61.8343L356.837 83.0475L296.025 22.2363Z" fill="#FBC402"/>
<path d="M356.85 41.0352L378.063 62.2484L337.538 101.846L296.038 101.846L356.85 41.0352Z" fill="#FBC402"/>
<path d="M337 22.2129H379.013L419.024 61.8109L397.811 83.0241L337 22.2129Z" fill="#393939"/>
<path d="M397.824 41.0117L419.037 62.2249L378.513 101.823L337.013 101.823L397.824 41.0117Z" fill="#393939"/>
<path d="M380.013 22.2246H422.025L462.037 61.8226L440.824 83.0358L380.013 22.2246Z" fill="#FBC402"/>
<path d="M440.837 41.0234L462.05 62.2366L421.525 101.835L380.026 101.835L440.837 41.0234Z" fill="#FBC402"/>
<path d="M421.013 22.2246H463.025L503.037 61.8226L481.824 83.0358L421.013 22.2246Z" fill="#393939"/>
<path d="M481.837 41.0234L503.05 62.2366L462.525 101.835L421.026 101.835L481.837 41.0234Z" fill="#393939"/>
<path d="M464.025 22.2363H506.038L546.05 61.8343L524.837 83.0475L464.025 22.2363Z" fill="#FBC402"/>
<path d="M524.85 41.0352L546.063 62.2484L505.538 101.846L464.038 101.846L524.85 41.0352Z" fill="#FBC402"/>
<path d="M505.013 22.2246H547.025L587.037 61.8226L565.824 83.0358L505.013 22.2246Z" fill="#393939"/>
<path d="M565.837 41.0234L587.05 62.2366L546.525 101.835L505.026 101.835L565.837 41.0234Z" fill="#393939"/>
<path d="M548.025 22.2363H590.038L630.05 61.8343L608.837 83.0475L548.025 22.2363Z" fill="#FBC402"/>
<path d="M608.85 41.0352L630.063 62.2484L589.538 101.846L548.038 101.846L608.85 41.0352Z" fill="#FBC402"/>
<path d="M589.025 22.2363H631.038L671.05 61.8343L649.837 83.0475L589.025 22.2363Z" fill="#393939"/>
<path d="M649.85 41.0352L671.063 62.2484L630.538 101.846L589.038 101.846L649.85 41.0352Z" fill="#393939"/>
<path d="M632.038 22.248H674.051L714.062 61.846L692.849 83.0592L632.038 22.248Z" fill="#FBC402"/>
<path d="M692.862 41.0469L714.076 62.2601L673.551 101.858L632.051 101.858L692.862 41.0469Z" fill="#FBC402"/>
<path d="M0.987305 22.2012H43L83.0117 61.7992L61.7985 83.0124L0.987305 22.2012Z" fill="#393939"/>
<path d="M61.8115 41L83.0247 62.2132L42.5 101.811L1.00034 101.811L61.8115 41Z" fill="#393939"/>
<path d="M44 22.2129H86.0127L126.024 61.8109L104.811 83.0241L44 22.2129Z" fill="#FBC402"/>
<path d="M104.824 41.0117L126.037 62.2249L85.5127 101.823L44.013 101.823L104.824 41.0117Z" fill="#FBC402"/>
<path d="M85 22.2129H127.013L167.024 61.8109L145.811 83.0241L85 22.2129Z" fill="#393939"/>
<path d="M145.824 41.0117L167.037 62.2249L126.513 101.823L85.013 101.823L145.824 41.0117Z" fill="#393939"/>
<path d="M128.013 22.2246H170.025L210.037 61.8226L188.824 83.0358L128.013 22.2246Z" fill="#FBC402"/>
<path d="M188.837 41.0234L210.05 62.2366L169.525 101.835L128.026 101.835L188.837 41.0234Z" fill="#FBC402"/>
<path d="M169 22.2129H211.013L251.024 61.8109L229.811 83.0241L169 22.2129Z" fill="#393939"/>
<path d="M229.824 41.0117L251.037 62.2249L210.513 101.823L169.013 101.823L229.824 41.0117Z" fill="#393939"/>
<path d="M212.013 22.2246H254.025L294.037 61.8226L272.824 83.0358L212.013 22.2246Z" fill="#FBC402"/>
<path d="M272.837 41.0234L294.05 62.2366L253.525 101.835L212.026 101.835L272.837 41.0234Z" fill="#FBC402"/>
<path d="M253.013 22.2246H295.025L335.037 61.8226L313.824 83.0358L253.013 22.2246Z" fill="#393939"/>
<path d="M313.837 41.0234L335.05 62.2366L294.525 101.835L253.026 101.835L313.837 41.0234Z" fill="#393939"/>
<path d="M296.025 22.2363H338.038L378.05 61.8343L356.837 83.0475L296.025 22.2363Z" fill="#FBC402"/>
<path d="M356.85 41.0352L378.063 62.2484L337.538 101.846L296.038 101.846L356.85 41.0352Z" fill="#FBC402"/>
<path d="M337 22.2129H379.013L419.024 61.8109L397.811 83.0241L337 22.2129Z" fill="#393939"/>
<path d="M397.824 41.0117L419.037 62.2249L378.513 101.823L337.013 101.823L397.824 41.0117Z" fill="#393939"/>
<path d="M380.013 22.2246H422.025L462.037 61.8226L440.824 83.0358L380.013 22.2246Z" fill="#FBC402"/>
<path d="M440.837 41.0234L462.05 62.2366L421.525 101.835L380.026 101.835L440.837 41.0234Z" fill="#FBC402"/>
<path d="M421.013 22.2246H463.025L503.037 61.8226L481.824 83.0358L421.013 22.2246Z" fill="#393939"/>
<path d="M481.837 41.0234L503.05 62.2366L462.525 101.835L421.026 101.835L481.837 41.0234Z" fill="#393939"/>
<path d="M464.025 22.2363H506.038L546.05 61.8343L524.837 83.0475L464.025 22.2363Z" fill="#FBC402"/>
<path d="M524.85 41.0352L546.063 62.2484L505.538 101.846L464.038 101.846L524.85 41.0352Z" fill="#FBC402"/>
<path d="M505.013 22.2246H547.025L587.037 61.8226L565.824 83.0358L505.013 22.2246Z" fill="#393939"/>
<path d="M565.837 41.0234L587.05 62.2366L546.525 101.835L505.026 101.835L565.837 41.0234Z" fill="#393939"/>
<path d="M548.025 22.2363H590.038L630.05 61.8343L608.837 83.0475L548.025 22.2363Z" fill="#FBC402"/>
<path d="M608.85 41.0352L630.063 62.2484L589.538 101.846L548.038 101.846L608.85 41.0352Z" fill="#FBC402"/>
<path d="M589.025 22.2363H631.038L671.05 61.8343L649.837 83.0475L589.025 22.2363Z" fill="#393939"/>
<path d="M649.85 41.0352L671.063 62.2484L630.538 101.846L589.038 101.846L649.85 41.0352Z" fill="#393939"/>
<path d="M632.038 22.248H674.051L714.062 61.846L692.849 83.0592L632.038 22.248Z" fill="#FBC402"/>
<path d="M692.862 41.0469L714.076 62.2601L673.551 101.858L632.051 101.858L692.862 41.0469Z" fill="#FBC402"/>
<path d="M1575.11 101.812L1533.09 101.832L1493.06 62.253L1514.27 41.0298L1575.11 101.812Z" fill="#393939"/>
<path d="M1514.27 83.043L1493.05 61.8397L1533.56 22.2227L1575.06 22.2033L1514.27 83.043Z" fill="#393939"/>
<path d="M1532.09 101.821L1490.08 101.841L1450.05 62.2617L1471.26 41.0386L1532.09 101.821Z" fill="#FBC402"/>
<path d="M1471.26 83.0508L1450.04 61.8475L1490.54 22.2306L1532.04 22.2111L1471.26 83.0508Z" fill="#FBC402"/>
<path d="M1491.09 101.841L1449.08 101.861L1409.05 62.2813L1430.26 41.0581L1491.09 101.841Z" fill="#393939"/>
<path d="M1430.26 83.0693L1409.04 61.8661L1449.54 22.2491L1491.04 22.2297L1430.26 83.0693Z" fill="#393939"/>
<path d="M1448.08 101.849L1406.07 101.868L1366.04 62.2891L1387.24 41.0659L1448.08 101.849Z" fill="#FBC402"/>
<path d="M1387.25 83.0781L1366.03 61.8749L1406.53 22.2579L1448.03 22.2385L1387.25 83.0781Z" fill="#FBC402"/>
<path d="M1407.09 101.88L1365.08 101.9L1325.05 62.3203L1346.26 41.0972L1407.09 101.88Z" fill="#393939"/>
<path d="M1346.26 83.1094L1325.04 61.9061L1365.54 22.2892L1407.04 22.2697L1346.26 83.1094Z" fill="#393939"/>
<path d="M1364.08 101.888L1322.07 101.907L1282.04 62.3281L1303.24 41.105L1364.08 101.888Z" fill="#FBC402"/>
<path d="M1303.25 83.1182L1282.03 61.9149L1322.53 22.2979L1364.03 22.2785L1303.25 83.1182Z" fill="#FBC402"/>
<path d="M1323.08 101.907L1281.07 101.927L1241.04 62.3477L1262.24 41.1245L1323.08 101.907Z" fill="#393939"/>
<path d="M1262.25 83.1367L1241.03 61.9335L1281.53 22.3165L1323.03 22.2971L1262.25 83.1367Z" fill="#393939"/>
<path d="M1280.07 101.916L1238.06 101.936L1198.03 62.3565L1219.23 41.1333L1280.07 101.916Z" fill="#FBC402"/>
<path d="M1219.24 83.1445L1198.01 61.9413L1238.52 22.3243L1280.02 22.3049L1219.24 83.1445Z" fill="#FBC402"/>
<path d="M1239.09 101.958L1197.08 101.978L1157.05 62.3985L1178.26 41.1753L1239.09 101.958Z" fill="#393939"/>
<path d="M1178.26 83.1885L1157.04 61.9852L1197.54 22.3683L1239.04 22.3488L1178.26 83.1885Z" fill="#393939"/>
<path d="M1196.08 101.967L1154.07 101.986L1114.04 62.4072L1135.24 41.1841L1196.08 101.967Z" fill="#FBC402"/>
<path d="M1135.25 83.1963L1114.03 61.993L1154.53 22.3761L1196.03 22.3566L1135.25 83.1963Z" fill="#FBC402"/>
<path d="M1155.08 101.986L1113.07 102.006L1073.04 62.4268L1094.24 41.2036L1155.08 101.986Z" fill="#393939"/>
<path d="M1094.25 83.2158L1073.03 62.0126L1113.53 22.3956L1155.03 22.3762L1094.25 83.2158Z" fill="#393939"/>
<path d="M1112.07 101.995L1070.06 102.015L1030.03 62.4356L1051.23 41.2124L1112.07 101.995Z" fill="#FBC402"/>
<path d="M1051.24 83.2236L1030.01 62.0204L1070.52 22.4034L1112.02 22.384L1051.24 83.2236Z" fill="#FBC402"/>
<path d="M1071.08 102.025L1029.07 102.045L989.039 62.4658L1010.24 41.2427L1071.08 102.025Z" fill="#393939"/>
<path d="M1010.25 83.2549L989.026 62.0516L1029.53 22.4347L1071.03 22.4152L1010.25 83.2549Z" fill="#393939"/>
<path d="M1028.07 102.034L986.057 102.054L946.026 62.4746L967.23 41.2515L1028.07 102.034Z" fill="#FBC402"/>
<path d="M967.236 83.2637L946.013 62.0604L986.519 22.4435L1028.02 22.424L967.236 83.2637Z" fill="#FBC402"/>
<path d="M987.069 102.054L945.057 102.073L905.026 62.4942L926.23 41.271L987.069 102.054Z" fill="#393939"/>
<path d="M926.236 83.2822L905.013 62.079L945.519 22.462L987.019 22.4426L926.236 83.2822Z" fill="#393939"/>
<path d="M944.057 102.062L902.044 102.081L862.014 62.502L883.217 41.2788L944.057 102.062Z" fill="#FBC402"/>
<path d="M883.223 83.291L862 62.0878L902.506 22.4708L944.006 22.4514L883.223 83.291Z" fill="#FBC402"/>
<path d="M1575.11 101.812L1533.09 101.832L1493.06 62.253L1514.27 41.0298L1575.11 101.812Z" fill="#393939"/>
<path d="M1514.27 83.043L1493.05 61.8397L1533.56 22.2227L1575.06 22.2033L1514.27 83.043Z" fill="#393939"/>
<path d="M1532.09 101.821L1490.08 101.841L1450.05 62.2617L1471.26 41.0386L1532.09 101.821Z" fill="#FBC402"/>
<path d="M1471.26 83.0508L1450.04 61.8475L1490.54 22.2306L1532.04 22.2111L1471.26 83.0508Z" fill="#FBC402"/>
<path d="M1491.09 101.841L1449.08 101.861L1409.05 62.2813L1430.26 41.0581L1491.09 101.841Z" fill="#393939"/>
<path d="M1430.26 83.0693L1409.04 61.8661L1449.54 22.2491L1491.04 22.2297L1430.26 83.0693Z" fill="#393939"/>
<path d="M1448.08 101.849L1406.07 101.868L1366.04 62.2891L1387.24 41.0659L1448.08 101.849Z" fill="#FBC402"/>
<path d="M1387.25 83.0781L1366.03 61.8749L1406.53 22.2579L1448.03 22.2385L1387.25 83.0781Z" fill="#FBC402"/>
<path d="M1407.09 101.88L1365.08 101.9L1325.05 62.3203L1346.26 41.0972L1407.09 101.88Z" fill="#393939"/>
<path d="M1346.26 83.1094L1325.04 61.9061L1365.54 22.2892L1407.04 22.2697L1346.26 83.1094Z" fill="#393939"/>
<path d="M1364.08 101.888L1322.07 101.907L1282.04 62.3281L1303.24 41.105L1364.08 101.888Z" fill="#FBC402"/>
<path d="M1303.25 83.1182L1282.03 61.9149L1322.53 22.2979L1364.03 22.2785L1303.25 83.1182Z" fill="#FBC402"/>
<path d="M1323.08 101.907L1281.07 101.927L1241.04 62.3477L1262.24 41.1245L1323.08 101.907Z" fill="#393939"/>
<path d="M1262.25 83.1367L1241.03 61.9335L1281.53 22.3165L1323.03 22.2971L1262.25 83.1367Z" fill="#393939"/>
<path d="M1280.07 101.916L1238.06 101.936L1198.03 62.3565L1219.23 41.1333L1280.07 101.916Z" fill="#FBC402"/>
<path d="M1219.24 83.1445L1198.01 61.9413L1238.52 22.3243L1280.02 22.3049L1219.24 83.1445Z" fill="#FBC402"/>
<path d="M1239.09 101.958L1197.08 101.978L1157.05 62.3985L1178.26 41.1753L1239.09 101.958Z" fill="#393939"/>
<path d="M1178.26 83.1885L1157.04 61.9852L1197.54 22.3683L1239.04 22.3488L1178.26 83.1885Z" fill="#393939"/>
<path d="M1196.08 101.967L1154.07 101.986L1114.04 62.4072L1135.24 41.1841L1196.08 101.967Z" fill="#FBC402"/>
<path d="M1135.25 83.1963L1114.03 61.993L1154.53 22.3761L1196.03 22.3566L1135.25 83.1963Z" fill="#FBC402"/>
<path d="M1155.08 101.986L1113.07 102.006L1073.04 62.4268L1094.24 41.2036L1155.08 101.986Z" fill="#393939"/>
<path d="M1094.25 83.2158L1073.03 62.0126L1113.53 22.3956L1155.03 22.3762L1094.25 83.2158Z" fill="#393939"/>
<path d="M1112.07 101.995L1070.06 102.015L1030.03 62.4356L1051.23 41.2124L1112.07 101.995Z" fill="#FBC402"/>
<path d="M1051.24 83.2236L1030.01 62.0204L1070.52 22.4034L1112.02 22.384L1051.24 83.2236Z" fill="#FBC402"/>
<path d="M1071.08 102.025L1029.07 102.045L989.039 62.4658L1010.24 41.2427L1071.08 102.025Z" fill="#393939"/>
<path d="M1010.25 83.2549L989.026 62.0516L1029.53 22.4347L1071.03 22.4152L1010.25 83.2549Z" fill="#393939"/>
<path d="M1028.07 102.034L986.057 102.054L946.026 62.4746L967.23 41.2515L1028.07 102.034Z" fill="#FBC402"/>
<path d="M967.236 83.2637L946.013 62.0604L986.519 22.4435L1028.02 22.424L967.236 83.2637Z" fill="#FBC402"/>
<path d="M987.069 102.054L945.057 102.073L905.026 62.4942L926.23 41.271L987.069 102.054Z" fill="#393939"/>
<path d="M926.236 83.2822L905.013 62.079L945.519 22.462L987.019 22.4426L926.236 83.2822Z" fill="#393939"/>
<path d="M944.057 102.062L902.044 102.081L862.014 62.502L883.217 41.2788L944.057 102.062Z" fill="#FBC402"/>
<path d="M883.223 83.291L862 62.0878L902.506 22.4708L944.006 22.4514L883.223 83.291Z" fill="#FBC402"/>
<path d="M1575.11 101.812L1533.09 101.832L1493.06 62.253L1514.27 41.0298L1575.11 101.812Z" fill="#393939"/>
<path d="M1514.27 83.043L1493.05 61.8397L1533.56 22.2227L1575.06 22.2033L1514.27 83.043Z" fill="#393939"/>
<path d="M1532.09 101.821L1490.08 101.841L1450.05 62.2617L1471.26 41.0386L1532.09 101.821Z" fill="#FBC402"/>
<path d="M1471.26 83.0508L1450.04 61.8475L1490.54 22.2306L1532.04 22.2111L1471.26 83.0508Z" fill="#FBC402"/>
<path d="M1491.09 101.841L1449.08 101.861L1409.05 62.2813L1430.26 41.0581L1491.09 101.841Z" fill="#393939"/>
<path d="M1430.26 83.0693L1409.04 61.8661L1449.54 22.2491L1491.04 22.2297L1430.26 83.0693Z" fill="#393939"/>
<path d="M1448.08 101.849L1406.07 101.868L1366.04 62.2891L1387.24 41.0659L1448.08 101.849Z" fill="#FBC402"/>
<path d="M1387.25 83.0781L1366.03 61.8749L1406.53 22.2579L1448.03 22.2385L1387.25 83.0781Z" fill="#FBC402"/>
<path d="M1407.09 101.88L1365.08 101.9L1325.05 62.3203L1346.26 41.0972L1407.09 101.88Z" fill="#393939"/>
<path d="M1346.26 83.1094L1325.04 61.9061L1365.54 22.2892L1407.04 22.2697L1346.26 83.1094Z" fill="#393939"/>
<path d="M1364.08 101.888L1322.07 101.907L1282.04 62.3281L1303.24 41.105L1364.08 101.888Z" fill="#FBC402"/>
<path d="M1303.25 83.1182L1282.03 61.9149L1322.53 22.2979L1364.03 22.2785L1303.25 83.1182Z" fill="#FBC402"/>
<path d="M1323.08 101.907L1281.07 101.927L1241.04 62.3477L1262.24 41.1245L1323.08 101.907Z" fill="#393939"/>
<path d="M1262.25 83.1367L1241.03 61.9335L1281.53 22.3165L1323.03 22.2971L1262.25 83.1367Z" fill="#393939"/>
<path d="M1280.07 101.916L1238.06 101.936L1198.03 62.3565L1219.23 41.1333L1280.07 101.916Z" fill="#FBC402"/>
<path d="M1219.24 83.1445L1198.01 61.9413L1238.52 22.3243L1280.02 22.3049L1219.24 83.1445Z" fill="#FBC402"/>
<path d="M1239.09 101.958L1197.08 101.978L1157.05 62.3985L1178.26 41.1753L1239.09 101.958Z" fill="#393939"/>
<path d="M1178.26 83.1885L1157.04 61.9852L1197.54 22.3683L1239.04 22.3488L1178.26 83.1885Z" fill="#393939"/>
<path d="M1196.08 101.967L1154.07 101.986L1114.04 62.4072L1135.24 41.1841L1196.08 101.967Z" fill="#FBC402"/>
<path d="M1135.25 83.1963L1114.03 61.993L1154.53 22.3761L1196.03 22.3566L1135.25 83.1963Z" fill="#FBC402"/>
<path d="M1155.08 101.986L1113.07 102.006L1073.04 62.4268L1094.24 41.2036L1155.08 101.986Z" fill="#393939"/>
<path d="M1094.25 83.2158L1073.03 62.0126L1113.53 22.3956L1155.03 22.3762L1094.25 83.2158Z" fill="#393939"/>
<path d="M1112.07 101.995L1070.06 102.015L1030.03 62.4356L1051.23 41.2124L1112.07 101.995Z" fill="#FBC402"/>
<path d="M1051.24 83.2236L1030.01 62.0204L1070.52 22.4034L1112.02 22.384L1051.24 83.2236Z" fill="#FBC402"/>
<path d="M1071.08 102.025L1029.07 102.045L989.039 62.4658L1010.24 41.2427L1071.08 102.025Z" fill="#393939"/>
<path d="M1010.25 83.2549L989.026 62.0516L1029.53 22.4347L1071.03 22.4152L1010.25 83.2549Z" fill="#393939"/>
<path d="M1028.07 102.034L986.057 102.054L946.026 62.4746L967.23 41.2515L1028.07 102.034Z" fill="#FBC402"/>
<path d="M967.236 83.2637L946.013 62.0604L986.519 22.4435L1028.02 22.424L967.236 83.2637Z" fill="#FBC402"/>
<path d="M987.069 102.054L945.057 102.073L905.026 62.4942L926.23 41.271L987.069 102.054Z" fill="#393939"/>
<path d="M926.236 83.2822L905.013 62.079L945.519 22.462L987.019 22.4426L926.236 83.2822Z" fill="#393939"/>
<path d="M944.057 102.062L902.044 102.081L862.014 62.502L883.217 41.2788L944.057 102.062Z" fill="#FBC402"/>
<path d="M883.223 83.291L862 62.0878L902.506 22.4708L944.006 22.4514L883.223 83.291Z" fill="#FBC402"/>
<path d="M1575.11 101.812L1533.09 101.832L1493.06 62.253L1514.27 41.0298L1575.11 101.812Z" fill="#393939"/>
<path d="M1514.27 83.043L1493.05 61.8397L1533.56 22.2227L1575.06 22.2033L1514.27 83.043Z" fill="#393939"/>
<path d="M1532.09 101.821L1490.08 101.841L1450.05 62.2617L1471.26 41.0386L1532.09 101.821Z" fill="#FBC402"/>
<path d="M1471.26 83.0508L1450.04 61.8475L1490.54 22.2306L1532.04 22.2111L1471.26 83.0508Z" fill="#FBC402"/>
<path d="M1491.09 101.841L1449.08 101.861L1409.05 62.2813L1430.26 41.0581L1491.09 101.841Z" fill="#393939"/>
<path d="M1430.26 83.0693L1409.04 61.8661L1449.54 22.2491L1491.04 22.2297L1430.26 83.0693Z" fill="#393939"/>
<path d="M1448.08 101.849L1406.07 101.868L1366.04 62.2891L1387.24 41.0659L1448.08 101.849Z" fill="#FBC402"/>
<path d="M1387.25 83.0781L1366.03 61.8749L1406.53 22.2579L1448.03 22.2385L1387.25 83.0781Z" fill="#FBC402"/>
<path d="M1407.09 101.88L1365.08 101.9L1325.05 62.3203L1346.26 41.0972L1407.09 101.88Z" fill="#393939"/>
<path d="M1346.26 83.1094L1325.04 61.9061L1365.54 22.2892L1407.04 22.2697L1346.26 83.1094Z" fill="#393939"/>
<path d="M1364.08 101.888L1322.07 101.907L1282.04 62.3281L1303.24 41.105L1364.08 101.888Z" fill="#FBC402"/>
<path d="M1303.25 83.1182L1282.03 61.9149L1322.53 22.2979L1364.03 22.2785L1303.25 83.1182Z" fill="#FBC402"/>
<path d="M1323.08 101.907L1281.07 101.927L1241.04 62.3477L1262.24 41.1245L1323.08 101.907Z" fill="#393939"/>
<path d="M1262.25 83.1367L1241.03 61.9335L1281.53 22.3165L1323.03 22.2971L1262.25 83.1367Z" fill="#393939"/>
<path d="M1280.07 101.916L1238.06 101.936L1198.03 62.3565L1219.23 41.1333L1280.07 101.916Z" fill="#FBC402"/>
<path d="M1219.24 83.1445L1198.01 61.9413L1238.52 22.3243L1280.02 22.3049L1219.24 83.1445Z" fill="#FBC402"/>
<path d="M1239.09 101.958L1197.08 101.978L1157.05 62.3985L1178.26 41.1753L1239.09 101.958Z" fill="#393939"/>
<path d="M1178.26 83.1885L1157.04 61.9852L1197.54 22.3683L1239.04 22.3488L1178.26 83.1885Z" fill="#393939"/>
<path d="M1196.08 101.967L1154.07 101.986L1114.04 62.4072L1135.24 41.1841L1196.08 101.967Z" fill="#FBC402"/>
<path d="M1135.25 83.1963L1114.03 61.993L1154.53 22.3761L1196.03 22.3566L1135.25 83.1963Z" fill="#FBC402"/>
<path d="M1155.08 101.986L1113.07 102.006L1073.04 62.4268L1094.24 41.2036L1155.08 101.986Z" fill="#393939"/>
<path d="M1094.25 83.2158L1073.03 62.0126L1113.53 22.3956L1155.03 22.3762L1094.25 83.2158Z" fill="#393939"/>
<path d="M1112.07 101.995L1070.06 102.015L1030.03 62.4356L1051.23 41.2124L1112.07 101.995Z" fill="#FBC402"/>
<path d="M1051.24 83.2236L1030.01 62.0204L1070.52 22.4034L1112.02 22.384L1051.24 83.2236Z" fill="#FBC402"/>
<path d="M1071.08 102.025L1029.07 102.045L989.039 62.4658L1010.24 41.2427L1071.08 102.025Z" fill="#393939"/>
<path d="M1010.25 83.2549L989.026 62.0516L1029.53 22.4347L1071.03 22.4152L1010.25 83.2549Z" fill="#393939"/>
<path d="M1028.07 102.034L986.057 102.054L946.026 62.4746L967.23 41.2515L1028.07 102.034Z" fill="#FBC402"/>
<path d="M967.236 83.2637L946.013 62.0604L986.519 22.4435L1028.02 22.424L967.236 83.2637Z" fill="#FBC402"/>
<path d="M987.069 102.054L945.057 102.073L905.026 62.4942L926.23 41.271L987.069 102.054Z" fill="#393939"/>
<path d="M926.236 83.2822L905.013 62.079L945.519 22.462L987.019 22.4426L926.236 83.2822Z" fill="#393939"/>
<path d="M944.057 102.062L902.044 102.081L862.014 62.502L883.217 41.2788L944.057 102.062Z" fill="#FBC402"/>
<path d="M883.223 83.291L862 62.0878L902.506 22.4708L944.006 22.4514L883.223 83.291Z" fill="#FBC402"/>
<path d="M742.683 22.57V37.69C742.683 39.3467 743.115 40.6183 743.978 41.505C744.842 42.3683 746.055 42.8 747.618 42.8C749.205 42.8 750.43 42.3683 751.293 41.505C752.157 40.6183 752.588 39.3467 752.588 37.69V22.57H757.523V37.655C757.523 39.7317 757.068 41.4933 756.158 42.94C755.272 44.3633 754.07 45.4367 752.553 46.16C751.06 46.8833 749.392 47.245 747.548 47.245C745.728 47.245 744.072 46.8833 742.578 46.16C741.108 45.4367 739.942 44.3633 739.078 42.94C738.215 41.4933 737.783 39.7317 737.783 37.655V22.57H742.683ZM781.853 47H776.953L765.858 30.235V47H760.958V22.535H765.858L776.953 39.335V22.535H781.853V47ZM793.935 22.57C796.502 22.57 798.753 23.0717 800.69 24.075C802.65 25.0783 804.155 26.5133 805.205 28.38C806.278 30.2233 806.815 32.37 806.815 34.82C806.815 37.27 806.278 39.4167 805.205 41.26C804.155 43.08 802.65 44.4917 800.69 45.495C798.753 46.4983 796.502 47 793.935 47H785.395V22.57H793.935ZM793.76 42.835C796.327 42.835 798.31 42.135 799.71 40.735C801.11 39.335 801.81 37.3633 801.81 34.82C801.81 32.2767 801.11 30.2933 799.71 28.87C798.31 27.4233 796.327 26.7 793.76 26.7H790.295V42.835H793.76ZM814.083 26.525V32.65H822.308V36.535H814.083V43.01H823.358V47H809.183V22.535H823.358V26.525H814.083ZM839.111 47L833.721 37.48H831.411V47H826.511V22.57H835.681C837.571 22.57 839.181 22.9083 840.511 23.585C841.841 24.2383 842.832 25.1367 843.486 26.28C844.162 27.4 844.501 28.66 844.501 30.06C844.501 31.67 844.034 33.1283 843.101 34.435C842.167 35.7183 840.779 36.605 838.936 37.095L844.781 47H839.111ZM831.411 33.805H835.506C836.836 33.805 837.827 33.49 838.481 32.86C839.134 32.2067 839.461 31.3083 839.461 30.165C839.461 29.045 839.134 28.1817 838.481 27.575C837.827 26.945 836.836 26.63 835.506 26.63H831.411V33.805ZM659.225 89.75C659.225 87.3467 659.762 85.2 660.835 83.31C661.932 81.3967 663.413 79.915 665.28 78.865C667.17 77.7917 669.282 77.255 671.615 77.255C674.345 77.255 676.737 77.955 678.79 79.355C680.843 80.755 682.278 82.6917 683.095 85.165H677.46C676.9 83.9983 676.107 83.1233 675.08 82.54C674.077 81.9567 672.91 81.665 671.58 81.665C670.157 81.665 668.885 82.0033 667.765 82.68C666.668 83.3333 665.805 84.2667 665.175 85.48C664.568 86.6933 664.265 88.1167 664.265 89.75C664.265 91.36 664.568 92.7833 665.175 94.02C665.805 95.2333 666.668 96.1783 667.765 96.855C668.885 97.5083 670.157 97.835 671.58 97.835C672.91 97.835 674.077 97.5433 675.08 96.96C676.107 96.3533 676.9 95.4667 677.46 94.3H683.095C682.278 96.7967 680.843 98.745 678.79 100.145C676.76 101.522 674.368 102.21 671.615 102.21C669.282 102.21 667.17 101.685 665.28 100.635C663.413 99.5617 661.932 98.08 660.835 96.19C659.762 94.3 659.225 92.1533 659.225 89.75ZM697.32 102.245C695.034 102.245 692.934 101.708 691.02 100.635C689.107 99.5617 687.59 98.08 686.47 96.19C685.35 94.2767 684.79 92.1183 684.79 89.715C684.79 87.335 685.35 85.2 686.47 83.31C687.59 81.3967 689.107 79.9033 691.02 78.83C692.934 77.7567 695.034 77.22 697.32 77.22C699.63 77.22 701.73 77.7567 703.62 78.83C705.534 79.9033 707.039 81.3967 708.135 83.31C709.255 85.2 709.815 87.335 709.815 89.715C709.815 92.1183 709.255 94.2767 708.135 96.19C707.039 98.08 705.534 99.5617 703.62 100.635C701.707 101.708 699.607 102.245 697.32 102.245ZM697.32 97.87C698.79 97.87 700.085 97.5433 701.205 96.89C702.325 96.2133 703.2 95.2567 703.83 94.02C704.46 92.7833 704.775 91.3483 704.775 89.715C704.775 88.0817 704.46 86.6583 703.83 85.445C703.2 84.2083 702.325 83.2633 701.205 82.61C700.085 81.9567 698.79 81.63 697.32 81.63C695.85 81.63 694.544 81.9567 693.4 82.61C692.28 83.2633 691.405 84.2083 690.775 85.445C690.145 86.6583 689.83 88.0817 689.83 89.715C689.83 91.3483 690.145 92.7833 690.775 94.02C691.405 95.2567 692.28 96.2133 693.4 96.89C694.544 97.5433 695.85 97.87 697.32 97.87ZM733.056 102H728.156L717.061 85.235V102H712.161V77.535H717.061L728.156 94.335V77.535H733.056V102ZM745.033 102.245C743.33 102.245 741.79 101.953 740.413 101.37C739.06 100.787 737.986 99.9467 737.193 98.85C736.4 97.7533 735.991 96.4583 735.968 94.965H741.218C741.288 95.9683 741.638 96.7617 742.268 97.345C742.921 97.9283 743.808 98.22 744.928 98.22C746.071 98.22 746.97 97.9517 747.623 97.415C748.276 96.855 748.603 96.1317 748.603 95.245C748.603 94.5217 748.381 93.9267 747.938 93.46C747.495 92.9933 746.935 92.6317 746.258 92.375C745.605 92.095 744.695 91.7917 743.528 91.465C741.941 90.9983 740.646 90.5433 739.643 90.1C738.663 89.6333 737.811 88.945 737.088 88.035C736.388 87.1017 736.038 85.865 736.038 84.325C736.038 82.8783 736.4 81.6183 737.123 80.545C737.846 79.4717 738.861 78.655 740.168 78.095C741.475 77.5117 742.968 77.22 744.648 77.22C747.168 77.22 749.21 77.8383 750.773 79.075C752.36 80.2883 753.235 81.9917 753.398 84.185H748.008C747.961 83.345 747.6 82.6567 746.923 82.12C746.27 81.56 745.395 81.28 744.298 81.28C743.341 81.28 742.571 81.525 741.988 82.015C741.428 82.505 741.148 83.2167 741.148 84.15C741.148 84.8033 741.358 85.3517 741.778 85.795C742.221 86.215 742.758 86.565 743.388 86.845C744.041 87.1017 744.951 87.405 746.118 87.755C747.705 88.2217 749 88.6883 750.003 89.155C751.006 89.6217 751.87 90.3217 752.593 91.255C753.316 92.1883 753.678 93.4133 753.678 94.93C753.678 96.2367 753.34 97.45 752.663 98.57C751.986 99.69 750.995 100.588 749.688 101.265C748.381 101.918 746.83 102.245 745.033 102.245ZM773.251 77.57V81.525H766.741V102H761.841V81.525H755.331V77.57H773.251ZM788.126 102L782.736 92.48H780.426V102H775.526V77.57H784.696C786.586 77.57 788.196 77.9083 789.526 78.585C790.856 79.2383 791.848 80.1367 792.501 81.28C793.178 82.4 793.516 83.66 793.516 85.06C793.516 86.67 793.05 88.1283 792.116 89.435C791.183 90.7183 789.795 91.605 787.951 92.095L793.796 102H788.126ZM780.426 88.805H784.521C785.851 88.805 786.843 88.49 787.496 87.86C788.15 87.2067 788.476 86.3083 788.476 85.165C788.476 84.045 788.15 83.1817 787.496 82.575C786.843 81.945 785.851 81.63 784.521 81.63H780.426V88.805ZM801.478 77.57V92.69C801.478 94.3467 801.91 95.6183 802.773 96.505C803.637 97.3683 804.85 97.8 806.413 97.8C808 97.8 809.225 97.3683 810.088 96.505C810.952 95.6183 811.383 94.3467 811.383 92.69V77.57H816.318V92.655C816.318 94.7317 815.863 96.4933 814.953 97.94C814.067 99.3633 812.865 100.437 811.348 101.16C809.855 101.883 808.187 102.245 806.343 102.245C804.523 102.245 802.867 101.883 801.373 101.16C799.903 100.437 798.737 99.3633 797.873 97.94C797.01 96.4933 796.578 94.7317 796.578 92.655V77.57H801.478ZM818.562 89.75C818.562 87.3467 819.099 85.2 820.172 83.31C821.269 81.3967 822.751 79.915 824.617 78.865C826.507 77.7917 828.619 77.255 830.952 77.255C833.682 77.255 836.074 77.955 838.127 79.355C840.181 80.755 841.616 82.6917 842.432 85.165H836.797C836.237 83.9983 835.444 83.1233 834.417 82.54C833.414 81.9567 832.247 81.665 830.917 81.665C829.494 81.665 828.222 82.0033 827.102 82.68C826.006 83.3333 825.142 84.2667 824.512 85.48C823.906 86.6933 823.602 88.1167 823.602 89.75C823.602 91.36 823.906 92.7833 824.512 94.02C825.142 95.2333 826.006 96.1783 827.102 96.855C828.222 97.5083 829.494 97.835 830.917 97.835C832.247 97.835 833.414 97.5433 834.417 96.96C835.444 96.3533 836.237 95.4667 836.797 94.3H842.432C841.616 96.7967 840.181 98.745 838.127 100.145C836.097 101.522 833.706 102.21 830.952 102.21C828.619 102.21 826.507 101.685 824.617 100.635C822.751 99.5617 821.269 98.08 820.172 96.19C819.099 94.3 818.562 92.1533 818.562 89.75ZM861.943 77.57V81.525H855.433V102H850.533V81.525H844.023V77.57H861.943ZM869.118 77.57V102H864.218V77.57H869.118ZM883.999 102.245C881.712 102.245 879.612 101.708 877.699 100.635C875.786 99.5617 874.269 98.08 873.149 96.19C872.029 94.2767 871.469 92.1183 871.469 89.715C871.469 87.335 872.029 85.2 873.149 83.31C874.269 81.3967 875.786 79.9033 877.699 78.83C879.612 77.7567 881.712 77.22 883.999 77.22C886.309 77.22 888.409 77.7567 890.299 78.83C892.212 79.9033 893.717 81.3967 894.814 83.31C895.934 85.2 896.494 87.335 896.494 89.715C896.494 92.1183 895.934 94.2767 894.814 96.19C893.717 98.08 892.212 99.5617 890.299 100.635C888.386 101.708 886.286 102.245 883.999 102.245ZM883.999 97.87C885.469 97.87 886.764 97.5433 887.884 96.89C889.004 96.2133 889.879 95.2567 890.509 94.02C891.139 92.7833 891.454 91.3483 891.454 89.715C891.454 88.0817 891.139 86.6583 890.509 85.445C889.879 84.2083 889.004 83.2633 887.884 82.61C886.764 81.9567 885.469 81.63 883.999 81.63C882.529 81.63 881.222 81.9567 880.079 82.61C878.959 83.2633 878.084 84.2083 877.454 85.445C876.824 86.6583 876.509 88.0817 876.509 89.715C876.509 91.3483 876.824 92.7833 877.454 94.02C878.084 95.2567 878.959 96.2133 880.079 96.89C881.222 97.5433 882.529 97.87 883.999 97.87ZM919.735 102H914.835L903.74 85.235V102H898.84V77.535H903.74L914.835 94.335V77.535H919.735V102Z" fill="white"/>
</svg>
